# xmcd
#
# Track frame offsets:
# 150
# 20503
# 43933
# 58355
# 73054
# 89182
#
# Disc length: 1387 seconds
#
# Revision: 1
# Processed by: cddbd v1.5.2PL0 Copyright (c) Steve Scherf et al.
# Submitted via: CedeCatalogueitor 2.6.0.6 http://personales.ya.com/cdcatalogueitor
#
DISCID=5d056906
DTITLE=Hidrogenesse Vs The Hidden Cameras - Vs
DYEAR=1900
DGENRE=
TTITLE0=Kingdom Come
TTITLE1=He Falls To Me In The Na
TTITLE2=Underage
TTITLE3=In The Na
TTITLE4=Do I Belong?
TTITLE5=
EXTD=
EXTT0=
EXTT1=
EXTT2=
EXTT3=
EXTT4=
EXTT5=
PLAYORDER=
